<mxfile host="app.diagrams.net" modified="2024-07-15T03:03:51.892Z" agent="Mozilla/5.0 (Windows NT 10.0; Win64; x64) AppleWebKit/537.36 (KHTML, like Gecko) Chrome/125.0.0.0 Safari/537.36" etag="Y7Kl0LsyTTq46IIjwlQ0" version="24.6.5" type="device">
  <diagram name="Trang-1" id="uXfRg25VxIqr37TLrq_x">
    <mxGraphModel dx="1310" dy="603" grid="1" gridSize="10" guides="1" tooltips="1" connect="1" arrows="1" fold="1" page="1" pageScale="1" pageWidth="827" pageHeight="1169" math="0" shadow="0">
      <root>
        <mxCell id="0" />
        <mxCell id="1" parent="0" />
        <mxCell id="u1G5XWQHHgUUKpx03jxY-1" value="User" style="shape=umlActor;verticalLabelPosition=bottom;verticalAlign=top;html=1;outlineConnect=0;" vertex="1" parent="1">
          <mxGeometry x="50" y="380" width="30" height="60" as="geometry" />
        </mxCell>
        <mxCell id="u1G5XWQHHgUUKpx03jxY-5" value="" style="endArrow=classic;html=1;rounded=0;" edge="1" parent="1" source="u1G5XWQHHgUUKpx03jxY-1">
          <mxGeometry width="50" height="50" relative="1" as="geometry">
            <mxPoint x="390" y="340" as="sourcePoint" />
            <mxPoint x="140" y="300" as="targetPoint" />
          </mxGeometry>
        </mxCell>
      </root>
    </mxGraphModel>
  </diagram>
</mxfile>
